<?xml version="1.0" encoding="utf-8"?>
<!-- Generator: Adobe Illustrator 27.4.0, SVG Export Plug-In . SVG Version: 6.00 Build 0)  -->
<svg version="1.1" id="svg3339" xmlns:svg="http://www.w3.org/2000/svg"
	 xmlns="http://www.w3.org/2000/svg" xmlns:xlink="http://www.w3.org/1999/xlink" x="0px" y="0px" width="623px" height="150px"
	 viewBox="0 0 623 150" style="enable-background:new 0 0 623 150;" xml:space="preserve">
<path d="M227.1,108l21.2-46.6h8L227.1,125l-29.3-63.6h8.1L227.1,108z M293,61.3h-7.2v59.8h7.2V83.3c0-10.3,7.6-17,17-17
	c9.4,0,16.6,7.6,16.6,17v37.8h7.2V83.3c0-13.2-10.7-23.9-23.9-23.9c-6.6,0-13.2,2.5-16.9,7.7V61.3L293,61.3z M387.5,66.9l38.1-41.4
	h-9.8l-40,43.5V25.5h-7.2v95.6h7.2V79.6l0,0l6.7-7.2l0,0l34,48.7h8.8L387.5,66.9L387.5,66.9z M190.6,25.5h-7.2v95.6h7.2V25.5z
	 M443.5,25.5h-7.2v95.6h7.2V25.5z M557.1,61.3H550v59.8h7.2V83.3c0-10.3,7.6-17,17-17c9.4,0,16.6,7.6,16.6,17v37.8h7.2V83.3
	c0-13.2-10.7-23.9-23.9-23.9c-6.6,0-13.2,2.5-16.9,7.7V61.3z M137.7,115.7c-13.6,0-24.6-11-24.6-24.6s11-24.6,24.6-24.6
	s24.6,11,24.6,24.6C162.3,104.7,151.3,115.7,137.7,115.7 M162.8,110.5v10.6h7.2V61.3h-7.2V72v-0.1c-5.8-7.6-14.8-12.4-25-12.4
	c-17.4,0-31.5,14.1-31.5,31.5s14.1,31.5,31.5,31.5c10.2,0,19.3-4.9,25-12.4L162.8,110.5L162.8,110.5z M510,84.4h-47.3l-0.1,0.1
	c2.9-10.3,12.4-18,23.7-18C497.7,66.4,507.2,74,510,84.4L510,84.4z M508.5,102c-4.1,8.1-12.4,13.6-22,13.6
	c-13.4,0-24.3-10.7-24.6-24.1h0.1h56h0.1c0-0.2,0-0.3,0-0.5c0-17.4-14.1-31.5-31.5-31.5c-17.4,0-31.5,14.1-31.5,31.5
	s14.1,31.5,31.5,31.5c12.4,0,23.2-7.2,28.4-17.7L508.5,102z M32.6,73.8c0-22.6,18.3-41.4,41-41.4c9.6,0,18.5,3.3,25.4,8.9l5.2-5.4
	C95.9,29.1,85.2,25,73.5,25C46.7,25,25,47.1,25,73.8c0,26.8,21.7,48.8,48.5,48.8c11.6,0,22.3-4.1,30.7-10.9l-5.2-5.4
	c-7,5.5-15.8,8.9-25.4,8.9C51,115.2,32.6,96.5,32.6,73.8 M272.9,61.3h-7.2v59.8h7.2V61.3z M269.5,34.2c2.4,0,4.4-2,4.4-4.4
	c0-2.4-2-4.4-4.4-4.4s-4.4,2-4.4,4.4C265.1,32.2,267,34.2,269.5,34.2 M536.5,61.3h-7.2v59.8h7.2V61.3z M533,34.2
	c2.4,0,4.4-2,4.4-4.4c0-2.4-2-4.4-4.4-4.4c-2.4,0-4.4,2-4.4,4.4C528.7,32.2,530.6,34.2,533,34.2"/>
</svg>
